<svg xmlns="http://www.w3.org/2000/svg" viewBox="0 0 64 64" id="emergency-exit"><path d="M60.77.18H3.23C1.45.18 0 1.62 0 3.41c0 1.78 1.45 3.23 3.23 3.23h10.2v7.84H8.65c-.53 0-.97.44-.97.97v37.84c0 .53.44.97.97.97h40.42c.53 0 .97-.44.97-.97V15.45c0-.53-.44-.97-.97-.97h-4.78V6.64h13.25v53.95a3.235 3.235 0 0 0 6.47 0V3.41A3.244 3.244 0 0 0 60.77.18zM48.1 16.42v35.9H9.62v-35.9H48.1zm-32.73-1.94V6.64h4.25v7.84h-4.25zm6.19 0V6.64h14.6v7.84h-14.6zm16.54 0V6.64h4.25v7.84H38.1zm23.96 46.11a1.295 1.295 0 0 1-2.59 0V5.67a.97.97 0 0 0-.97-.97H3.23c-.71 0-1.29-.58-1.29-1.29 0-.71.58-1.29 1.29-1.29h57.54c.71 0 1.29.58 1.29 1.29v57.18z"></path><path fill="#ffcb4c" d="M62.06 3.41v57.18a1.295 1.295 0 0 1-2.59 0V5.67a.97.97 0 0 0-.97-.97H3.23c-.71 0-1.29-.58-1.29-1.29 0-.71.58-1.29 1.29-1.29h57.54c.71 0 1.29.58 1.29 1.29z"></path><path fill="#f7be3d" d="M62.06 3.41v57.18c0 .71-.58 1.29-1.29 1.29.02-.06.02-.11.02-.16V4.53c0-.71-.58-1.29-1.29-1.29H1.96c.08-.63.62-1.12 1.27-1.12h57.54c.71 0 1.29.58 1.29 1.29z"></path><path fill="#60bbe9" d="M9.62 16.42v35.9H48.1v-35.9H9.62zm35.6 31.97c0 .54-.44.97-.97.97H13.47c-.54 0-.97-.43-.97-.97V20.35c0-.53.43-.97.97-.97h30.78c.53 0 .97.44.97.97v28.04z"></path><path fill="#51b8e0" d="M48.1 16.42v35.9h-2.88V16.44H9.62v-.02z"></path><path d="M44.25 19.38H13.47a.97.97 0 0 0-.97.97v28.04c0 .54.43.97.97.97h30.78c.53 0 .97-.43.97-.97V20.35c0-.53-.44-.97-.97-.97zm-.97 28.04H14.44v-26.1h28.84v26.1z"></path><path fill="#60bbe9" d="M14.44 21.32v26.1h28.84v-26.1H14.44zm7.82 16.95c-.01.09-.03.16-.05.2-.02.06-.05.1-.09.12a.15.15 0 0 1-.11.04h-4.28c-.14 0-.26-.05-.36-.13-.1-.09-.15-.23-.15-.42v-7.42c0-.19.05-.34.15-.43.1-.08.22-.13.36-.13H22c.04 0 .07.01.1.04.04.02.06.06.09.12.02.05.03.12.05.2.01.09.01.19.01.33 0 .12 0 .22-.01.31-.02.09-.03.16-.05.2-.03.06-.05.1-.09.12-.03.03-.06.04-.1.04h-3.04v2.08h2.57c.05 0 .08.02.12.04.03.02.06.06.08.12.02.05.04.12.05.2a2.405 2.405 0 0 1 0 .62c-.01.09-.03.16-.05.2-.02.05-.05.09-.08.11-.04.02-.07.04-.12.04h-2.57v2.4h3.06c.04 0 .08.01.11.04.04.02.07.06.09.12.02.05.04.12.05.2.01.09.02.19.02.32-.01.13-.02.23-.03.32zm7.72.28c-.05.05-.15.08-.29.1-.14.01-.33.02-.57.02-.2 0-.37-.01-.48-.01-.12-.01-.21-.03-.28-.05a.347.347 0 0 1-.15-.08.468.468 0 0 1-.08-.14l-1.6-3.07-1.59 3.07a.85.85 0 0 1-.09.14c-.03.03-.08.06-.15.08-.07.02-.16.04-.28.05-.13 0-.28.01-.48.01-.22 0-.4-.01-.52-.02-.13-.02-.21-.05-.25-.1-.05-.05-.06-.12-.03-.2.03-.1.08-.21.16-.37l2.04-3.71-1.89-3.5c-.08-.16-.14-.28-.16-.38-.03-.09-.02-.16.04-.2.05-.05.14-.08.27-.09.14-.01.33-.02.58-.02.2 0 .37.01.49.02.12 0 .21.02.28.04.07.02.12.05.15.08.03.04.06.09.09.14l1.49 2.81 1.45-2.81c.02-.05.05-.1.08-.14.03-.03.08-.06.14-.08.07-.02.16-.04.26-.04a6.393 6.393 0 0 1 .99 0c.13.01.21.04.26.09.05.05.06.12.04.21-.03.09-.08.21-.16.37l-1.89 3.47 2.02 3.74c.08.16.14.27.16.37.02.08 0 .15-.05.2zm2.98-.16c0 .05-.01.09-.04.13-.03.03-.08.06-.15.08-.07.03-.16.04-.26.06a4.54 4.54 0 0 1-.84 0c-.12-.02-.2-.03-.27-.06a.347.347 0 0 1-.15-.08.201.201 0 0 1-.04-.13v-8.03c0-.05.01-.09.04-.13.03-.03.08-.06.15-.08.07-.03.16-.04.27-.06a4.36 4.36 0 0 1 .84 0c.11.02.19.03.26.06.07.02.12.05.15.08.03.04.04.08.04.13v8.03zm7.51-7.24c-.02.09-.03.16-.06.21-.02.06-.05.1-.08.13a.15.15 0 0 1-.11.04h-2.13v6.86c0 .05-.01.09-.04.13-.03.03-.08.06-.15.08-.07.03-.16.04-.26.06a4.54 4.54 0 0 1-.84 0c-.12-.02-.2-.03-.27-.06a.347.347 0 0 1-.15-.08.201.201 0 0 1-.04-.13v-6.86h-2.13a.15.15 0 0 1-.11-.04.322.322 0 0 1-.08-.13c-.03-.05-.04-.13-.05-.21-.02-.09-.02-.19-.02-.33 0-.13 0-.24.02-.33.01-.1.02-.16.05-.22.02-.05.05-.1.08-.12a.21.21 0 0 1 .11-.04h6c.04 0 .08.02.11.04s.06.07.08.12c.03.06.04.13.06.22.01.09.01.2.01.33.01.14.01.24 0 .33z"></path><path fill="#51b8e0" d="M40.48 21.32h2.8v26.1h-2.8z"></path><path d="M22.28 37.95c0 .13-.01.23-.02.32s-.03.16-.05.2c-.02.06-.05.1-.09.12a.15.15 0 0 1-.11.04h-4.28c-.14 0-.26-.05-.36-.13-.1-.09-.15-.23-.15-.42v-7.42c0-.19.05-.34.15-.43.1-.08.22-.13.36-.13H22c.04 0 .07.01.1.04.04.02.06.06.09.12.02.05.03.12.05.2.01.09.01.19.01.33 0 .12 0 .22-.01.31-.02.09-.03.16-.05.2-.03.06-.05.1-.09.12-.03.03-.06.04-.1.04h-3.04v2.08h2.57c.05 0 .08.02.12.04.03.02.06.06.08.12.02.05.04.12.05.2a2.405 2.405 0 0 1 0 .62c-.01.09-.03.16-.05.2-.02.05-.05.09-.08.11-.04.02-.07.04-.12.04h-2.57v2.4h3.06c.04 0 .08.01.11.04.04.02.07.06.09.12.02.05.04.12.05.2 0 .09.01.19.01.32zm7.7.6c-.05.05-.15.08-.29.1-.14.01-.33.02-.57.02-.2 0-.37-.01-.48-.01-.12-.01-.21-.03-.28-.05a.347.347 0 0 1-.15-.08.468.468 0 0 1-.08-.14l-1.6-3.07-1.59 3.07a.85.85 0 0 1-.09.14c-.03.03-.08.06-.15.08-.07.02-.16.04-.28.05-.13 0-.28.01-.48.01-.22 0-.4-.01-.52-.02-.13-.02-.21-.05-.25-.1-.05-.05-.06-.12-.03-.2.03-.1.08-.21.16-.37l2.04-3.71-1.89-3.5c-.08-.16-.14-.28-.16-.38-.03-.09-.02-.16.04-.2.05-.05.14-.08.27-.09.14-.01.33-.02.58-.02.2 0 .37.01.49.02.12 0 .21.02.28.04.07.02.12.05.15.08.03.04.06.09.09.14l1.49 2.81 1.45-2.81c.02-.05.05-.1.08-.14.03-.03.08-.06.14-.08.07-.02.16-.04.26-.04a6.393 6.393 0 0 1 .99 0c.13.01.21.04.26.09.05.05.06.12.04.21-.03.09-.08.21-.16.37l-1.89 3.47 2.02 3.74c.08.16.14.27.16.37.02.08 0 .15-.05.2zm2.98-8.19v8.03c0 .05-.01.09-.04.13-.03.03-.08.06-.15.08-.07.03-.16.04-.26.06a4.54 4.54 0 0 1-.84 0c-.12-.02-.2-.03-.27-.06a.347.347 0 0 1-.15-.08.201.201 0 0 1-.04-.13v-8.03c0-.05.01-.09.04-.13.03-.03.08-.06.15-.08.07-.03.16-.04.27-.06a4.36 4.36 0 0 1 .84 0c.11.02.19.03.26.06.07.02.12.05.15.08.03.04.04.08.04.13zm7.52.46c0 .14 0 .24-.01.33-.02.09-.03.16-.06.21-.02.06-.05.1-.08.13a.15.15 0 0 1-.11.04h-2.13v6.86c0 .05-.01.09-.04.13-.03.03-.08.06-.15.08-.07.03-.16.04-.26.06a4.54 4.54 0 0 1-.84 0c-.12-.02-.2-.03-.27-.06a.347.347 0 0 1-.15-.08.201.201 0 0 1-.04-.13v-6.86h-2.13a.15.15 0 0 1-.11-.04.322.322 0 0 1-.08-.13c-.03-.05-.04-.13-.05-.21-.02-.09-.02-.19-.02-.33 0-.13 0-.24.02-.33.01-.1.02-.16.05-.22.02-.05.05-.1.08-.12a.21.21 0 0 1 .11-.04h6c.04 0 .08.02.11.04s.06.07.08.12c.03.06.04.13.06.22.02.09.02.21.02.33z"></path></svg>